<svg xmlns="http://www.w3.org/2000/svg" width="1600" height="900" viewBox="0 0 1600 900" role="img" aria-labelledby="title desc">
<title id="title">¿Pagas más del 7% en salud?</title>
<desc id="desc">Portada editorial Viex Salud sobre cotización adicional de salud.</desc>
<defs>
  <linearGradient id="bg" x1="0" y1="0" x2="1" y2="1"><stop stop-color="#faf8f3"/><stop offset="1" stop-color="#f3ede0"/></linearGradient>
  <linearGradient id="green" x1="0" y1="0" x2="1" y2="1"><stop stop-color="#163a32"/><stop offset="1" stop-color="#0a201c"/></linearGradient>
  <linearGradient id="gold" x1="0" y1="0" x2="1" y2="1"><stop stop-color="#e3c876"/><stop offset="1" stop-color="#96731f"/></linearGradient>
  <filter id="shadow"><feDropShadow dx="0" dy="16" stdDeviation="18" flood-color="#0a201c" flood-opacity=".16"/></filter>
</defs>
<rect width="1600" height="900" fill="url(#bg)"/>
<path d="M1110 0H1600V900H1325C1210 745 1175 570 1205 385C1226 250 1195 120 1110 0Z" fill="url(#green)"/>
<path d="M1180 0C1260 170 1280 315 1248 455C1214 604 1250 753 1370 900" fill="none" stroke="#cba63f" stroke-width="6"/>
<rect x="110" y="112" width="310" height="58" rx="29" fill="none" stroke="#b3902f" stroke-width="3"/>
<text x="265" y="150" text-anchor="middle" font-family="Arial,Helvetica,sans-serif" font-size="25" letter-spacing="5" fill="#163a32">GUÍA VIEX SALUD</text>
<text x="110" y="295" font-family="Georgia,serif" font-size="94" font-weight="700" fill="#0a201c">¿Pagas más del</text>
<text x="110" y="410" font-family="Georgia,serif" font-size="130" font-weight="700" fill="#b3902f">7% <tspan fill="#0a201c" font-size="94">en salud?</tspan></text>
<text x="115" y="495" font-family="Arial,Helvetica,sans-serif" font-size="43" fill="#163a32">Te explicamos por qué aparece un adicional</text>
<g filter="url(#shadow)" transform="translate(745 565) rotate(-5)">
  <rect x="0" y="0" width="330" height="230" rx="20" fill="#fff"/>
  <circle cx="57" cy="58" r="30" fill="#163a32"/><path d="M57 41V75M40 58H74" stroke="#fff" stroke-width="10"/>
  <rect x="110" y="40" width="150" height="13" rx="6" fill="#cbd2cd"/>
  <rect x="110" y="68" width="185" height="13" rx="6" fill="#d9ddd9"/>
  <rect x="38" y="120" width="145" height="15" rx="7" fill="#cbd2cd"/>
  <rect x="38" y="154" width="105" height="15" rx="7" fill="#d9ddd9"/>
  <rect x="225" y="118" width="67" height="67" rx="10" fill="#f5ead0"/>
  <text x="258" y="165" text-anchor="middle" font-family="Arial" font-size="42" font-weight="700" fill="#163a32">%</text>
</g>
<g transform="translate(115 725)">
  <circle cx="55" cy="55" r="53" fill="url(#gold)"/><circle cx="55" cy="55" r="44" fill="url(#green)"/>
  <path d="M34 39L55 72L77 39" fill="none" stroke="#e3c876" stroke-width="8" stroke-linecap="round" stroke-linejoin="round"/><circle cx="55" cy="32" r="4" fill="#e3c876"/>
  <text x="130" y="48" font-family="Arial,Helvetica,sans-serif" font-size="31" font-weight="700" fill="#0a201c">Asesoría 100% gratuita</text>
  <text x="130" y="86" font-family="Arial,Helvetica,sans-serif" font-size="27" fill="#3d4a44">viexsalud.cl · +56 9 4862 7767</text>
</g>
</svg>