<svg xmlns="http://www.w3.org/2000/svg" width="1600" height="900" viewBox="0 0 1600 900" role="img">
<defs><linearGradient id="bg" x1="0" y1="0" x2="1" y2="1"><stop stop-color="#faf8f3"/><stop offset="1" stop-color="#f3ede0"/></linearGradient><linearGradient id="g" x1="0" y1="0" x2="1" y2="1"><stop stop-color="#163a32"/><stop offset="1" stop-color="#0a201c"/></linearGradient><linearGradient id="a"><stop stop-color="#e3c876"/><stop offset="1" stop-color="#96731f"/></linearGradient></defs>
<rect width="1600" height="900" fill="url(#bg)"/><path d="M1120 0H1600V900H1305C1190 730 1170 570 1210 390C1240 245 1205 110 1120 0Z" fill="url(#g)"/><path d="M1185 0C1270 175 1282 330 1245 470C1210 610 1255 760 1380 900" fill="none" stroke="#cba63f" stroke-width="6"/>
<rect x="110" y="112" width="330" height="58" rx="29" fill="none" stroke="#b3902f" stroke-width="3"/><text x="275" y="150" text-anchor="middle" font-family="Arial,sans-serif" font-size="24" letter-spacing="5" fill="#163a32">GUÍA · SISTEMA DE SALUD</text>
<text x="110" y="330" font-family="Georgia,serif" font-size="98" font-weight="700" fill="#0a201c">Fonasa vs. Isapre</text><text x="110" y="450" font-family="Georgia,serif" font-size="98" font-weight="700" fill="#b3902f">¿Cuál te conviene?</text>
<g transform="translate(780 535)"><circle cx="175" cy="145" r="145" fill="#fff" stroke="#e3c876" stroke-width="5"/><circle cx="175" cy="145" r="112" fill="#f5ead0"/><path d="M112 120h126v92H112z" fill="none" stroke="#163a32" stroke-width="12" rx="10"/><path d="M175 92v148M102 166h146" stroke="#cba63f" stroke-width="13" stroke-linecap="round"/></g>
<g transform="translate(115 720)"><circle cx="55" cy="55" r="53" fill="url(#a)"/><circle cx="55" cy="55" r="44" fill="url(#g)"/><path d="M34 39L55 72L77 39" fill="none" stroke="#e3c876" stroke-width="8" stroke-linecap="round" stroke-linejoin="round"/><circle cx="55" cy="32" r="4" fill="#e3c876"/><text x="130" y="48" font-family="Arial,sans-serif" font-size="31" font-weight="700" fill="#0a201c">Información clara para decidir mejor</text><text x="130" y="86" font-family="Arial,sans-serif" font-size="27" fill="#3d4a44">Viex Salud · Asesoría 100% gratuita</text></g></svg>